<svg width="101" height="100" viewBox="0 0 101 100" fill="none" xmlns="http://www.w3.org/2000/svg">
<g id="&#208;&#159;&#209;&#128;&#208;&#190;&#208;&#180;&#209;&#131;&#208;&#186;&#209;&#134;&#208;&#184;&#209;&#143;">
<g clip-path="url(#clip0_4002_325)">
<path id="Vector" d="M50.8317 100C78.3942 100 100.738 77.6142 100.738 50C100.738 22.3858 78.3942 0 50.8317 0C23.2691 0 0.925293 22.3858 0.925293 50C0.925293 77.6142 23.2691 100 50.8317 100Z" fill="#578C3E"/>
<path id="Vector_2" d="M50.8318 100C72.8819 100 90.7569 82.0914 90.7569 60C90.7569 37.9086 72.8819 20 50.8318 20C28.7818 20 10.9067 37.9086 10.9067 60C10.9067 82.0914 28.7818 100 50.8318 100Z" fill="#BFE06F"/>
<path id="Vector_3" d="M50.8315 100C67.369 100 80.7753 86.5685 80.7753 70C80.7753 53.4315 67.369 40 50.8315 40C34.294 40 20.8877 53.4315 20.8877 70C20.8877 86.5685 34.294 100 50.8315 100Z" fill="#578C3E"/>
<path id="Vector_4" d="M50.8317 100C61.8567 100 70.7942 91.0457 70.7942 80C70.7942 68.9543 61.8567 60 50.8317 60C39.8067 60 30.8691 68.9543 30.8691 80C30.8691 91.0457 39.8067 100 50.8317 100Z" fill="#BFE06F"/>
<path id="Vector_5" d="M50.8319 100C56.3444 100 60.8131 95.5228 60.8131 90C60.8131 84.4772 56.3444 80 50.8319 80C45.3194 80 40.8506 84.4772 40.8506 90C40.8506 95.5228 45.3194 100 50.8319 100Z" fill="#578C3E"/>
</g>
</g>
<defs>
<clipPath id="clip0_4002_325">
<rect x="0.925293" width="99.8127" height="100" rx="49.9064" fill="white"/>
</clipPath>
</defs>
</svg>
