<svg width="18" height="18" viewBox="0 0 18 18" fill="none" xmlns="http://www.w3.org/2000/svg">
<path fill-rule="evenodd" clip-rule="evenodd" d="M0.514584 17.2929C0.124059 16.9024 0.124059 16.2692 0.514584 15.8787L16.0709 0.32232C16.4615 -0.068205 17.0946 -0.0682043 17.4851 0.32232C17.8757 0.712845 17.8757 1.34601 17.4851 1.73653L1.9288 17.2929C1.53827 17.6834 0.905108 17.6834 0.514584 17.2929Z" fill="currentColor"/>
<path fill-rule="evenodd" clip-rule="evenodd" d="M17.4851 17.6776C17.8757 17.2871 17.8757 16.654 17.4851 16.2634L1.92879 0.707086C1.53826 0.316561 0.905098 0.316561 0.514573 0.707086C0.124049 1.09761 0.124048 1.73077 0.514573 2.1213L16.0709 17.6776C16.4614 18.0682 17.0946 18.0682 17.4851 17.6776Z" fill="currentColor"/>
</svg>
