<svg width="266" height="70" viewBox="0 0 266 70" fill="none" xmlns="http://www.w3.org/2000/svg">
<g clip-path="url(#clip0_4002_97)">
<circle cx="35" cy="35.0001" r="35" fill="#366747"/>
<path d="M26.0226 12.8043C29.2737 8.27282 32.8799 4.0073 36.8071 0.0481182C36.245 0.0185219 35.6832 0.00256396 35.1222 0.00012207C42.4767 0.0252643 49.2969 2.31876 54.9197 6.21752C50.5565 3.19795 45.5236 1.18298 40.1812 0.385931C35.3718 4.89321 31.2456 10.0359 27.3124 15.4106C24.4218 19.3365 21.8017 23.4548 19.4704 27.737C20.8803 35.796 22.3859 43.8941 24.5139 51.7886C25.6356 56.0729 27.0597 60.2721 28.7757 64.3546C29.6299 66.2401 30.5984 68.0717 31.6758 69.8391C32.8565 69.9527 34.037 70.0056 35.2128 69.9993C35.1419 69.9997 35.071 69.9999 35 69.9999C27.7126 69.9999 20.9454 67.7728 15.3419 63.962C19.7944 66.9884 24.914 68.9582 30.309 69.6772C29.3842 68.1353 28.5522 66.5396 27.8174 64.8986C26.1655 60.9913 24.78 56.9766 23.6705 52.8819C21.5341 45.162 20.0271 37.2368 18.6359 29.3393C17.5686 31.4085 16.5693 33.5145 15.6697 35.6648C12.41 43.4595 10.7723 51.4568 10.0965 59.5796C10.1235 59.6066 10.1493 59.6344 10.175 59.6622C10.2009 59.6901 10.2269 59.7181 10.2539 59.7451C11.3445 60.8394 12.5017 61.8549 13.7165 62.7873C5.37682 56.3899 0 46.3228 0 34.9999C0 34.9991 7.80974e-08 34.9983 7.80974e-08 34.9975C0.000218261 38.1081 0.415254 41.2125 1.24002 44.2273C2.51281 48.8797 4.73384 53.2183 7.76346 56.9703C8.53218 49.2042 10.432 41.5924 13.4027 34.3766C14.7289 31.237 16.2382 28.1782 17.9229 25.2158C16.8415 18.8855 15.9303 12.5311 15.1892 6.15274C11.2128 8.87974 7.84334 12.4005 5.29261 16.4935C2.74189 20.5866 1.06509 25.1634 0.367658 29.9363C0.144326 31.4647 0.0229656 33.0025 0.00296161 34.5399C0.160437 22.3153 6.5851 11.6019 16.2112 5.46534C16.9152 11.5716 17.7727 17.6579 18.7837 23.7243C20.9918 19.9656 23.4347 16.3444 26.0226 12.8043Z" fill="#BFE06F"/>
<path d="M17.7642 4.53098C21.9409 2.16738 26.548 0.6961 31.2941 0.193782C26.4156 0.707194 21.8358 2.22282 17.7642 4.53098Z" fill="#BFE06F"/>
<path d="M52.4529 65.3447C47.9685 67.9295 42.8573 69.5488 37.4034 69.9187C42.6997 69.5572 47.8481 67.9931 52.4529 65.3447Z" fill="#BFE06F"/>
<path d="M64.0247 54.5656C67.7972 48.9802 70 42.2473 70 34.9999C70 27.1142 67.3921 19.8377 62.9918 13.9856C68.4197 21.2179 70.8403 30.2751 69.7402 39.2582C69.0628 44.7897 67.0832 50.0259 64.0247 54.5656Z" fill="#BFE06F"/>
<path d="M19.4731 14.8676C17.5326 12.9258 20.5465 9.91674 22.4837 11.8551C24.4209 13.7936 21.4104 16.806 19.4731 14.8676Z" fill="#BFE06F"/>
<path d="M10.3758 18.3983C9.27141 17.2933 10.9872 15.5798 12.0899 16.6832C13.1926 17.7866 11.4788 19.502 10.3758 18.3983Z" fill="#BFE06F"/>
<path d="M11.5152 27.0097C9.18736 24.6805 12.8033 21.0703 15.1271 23.3955C17.4509 25.7208 13.8393 29.3353 11.5152 27.0097Z" fill="#BFE06F"/>
<path d="M7.21878 42.4559C6.11574 41.3522 4.39999 43.0657 5.50469 44.1711L5.50369 44.1694C6.60639 45.2728 8.32181 43.5597 7.21878 42.4559Z" fill="#BFE06F"/>
<path d="M17.1543 35.2974C16.2628 34.4053 17.6473 33.0225 18.5375 33.9133C19.4278 34.8041 18.0442 36.1878 17.1543 35.2974Z" fill="#BFE06F"/>
<path d="M23.2218 66.1388C21.6295 64.5455 24.1031 62.0757 25.6927 63.6664C27.2824 65.257 24.8128 67.7308 23.2232 66.1401L23.2218 66.1388Z" fill="#BFE06F"/>
<mask id="path-3-outside-1_4002_97" maskUnits="userSpaceOnUse" x="26.7229" y="24.0028" width="37" height="24" fill="black">
<rect fill="white" x="26.7229" y="24.0028" width="37" height="24"/>
<path fill-rule="evenodd" clip-rule="evenodd" d="M52.1595 35.6517L51.955 35.8548C51.5567 36.2507 51.1085 36.6178 50.6204 36.9483L53.7336 40.077L53.5296 40.2804C51.3523 42.447 48.4616 43.6347 45.3911 43.6269C42.3202 43.6191 39.4359 42.4159 37.2701 40.2391L37.067 40.0346L40.1958 36.9218C39.7069 36.588 39.2602 36.219 38.8659 35.8211L38.6628 35.6174L41.6879 32.6073C41.3062 32.3536 40.9587 32.0705 40.6514 31.7617L40.4479 31.558L42.9541 29.0641C42.7179 28.9051 42.5003 28.7253 42.3031 28.5275L42.1001 28.3235L45.4372 25.0028L48.7582 28.3404L48.5541 28.5434C48.3575 28.7398 48.1389 28.9185 47.9012 29.0766L50.3951 31.5832L50.1902 31.7859C49.8801 32.0936 49.5312 32.3749 49.1494 32.6258L52.1595 35.6517ZM45.3922 43.0508C48.2135 43.058 50.8736 42.0029 52.9158 40.0729L49.7081 36.8465L50.0139 36.6555C50.4981 36.3533 50.9438 36.0137 51.3425 35.6449L48.2237 32.5103L48.5449 32.3225C48.922 32.1018 49.2669 31.8515 49.5749 31.5745L46.9669 28.9536L47.2999 28.7686C47.5301 28.6407 47.7427 28.4938 47.9365 28.3296L45.4359 25.8163L42.9238 28.3169C43.1167 28.4824 43.329 28.6304 43.5582 28.7591L43.8902 28.9454L41.2689 31.5534C41.5751 31.8316 41.9195 32.084 42.2955 32.3074L42.6145 32.4968L39.4811 35.6148C39.8759 35.9844 40.3199 36.3259 40.8041 36.6321L41.1085 36.825L37.8837 40.0339C39.9161 41.9742 42.5708 43.0436 45.3922 43.0508Z"/>
<path fill-rule="evenodd" clip-rule="evenodd" d="M61.2392 35.5056L63.0914 37.3665L62.8862 37.568C61.8307 38.6181 60.4987 39.2844 59.0562 39.5146L59.1761 39.5149L59.1722 41.0582C59.171 41.4952 58.4524 41.5849 57.8503 41.5834C57.2475 41.5818 56.5289 41.4881 56.53 41.0522L56.5344 39.4857L56.6354 39.486C55.2539 39.2274 53.9818 38.562 52.9685 37.5439L52.7659 37.3394L54.6271 35.488C54.3745 35.3062 54.1399 35.1071 53.9267 34.8944L53.7232 34.6903L55.5222 32.9004C55.332 32.7651 55.1567 32.6173 54.9987 32.4581L54.7952 32.2541L56.2837 30.7731C56.1782 30.6946 56.0798 30.6091 55.9888 30.5177L55.7854 30.314L57.952 28.1592L60.106 30.325L59.9023 30.5276C59.8109 30.619 59.7112 30.704 59.6061 30.7819L61.0887 32.2709L60.8834 32.4743C60.7234 32.6323 60.5474 32.7792 60.3576 32.9131L62.1467 34.7121L61.9422 34.9152C61.7287 35.1276 61.4932 35.3251 61.2392 35.5056ZM57.8522 41.008C58.2248 41.009 58.4772 40.9636 58.5975 40.927L58.6017 39.5794C58.3773 39.6005 58.1509 39.6113 57.9222 39.6107C57.6486 39.61 57.3779 39.5885 57.1111 39.5576L57.1077 40.9232C57.2278 40.9605 57.4796 41.0071 57.8522 41.008ZM53.5845 37.3372C54.7709 38.4296 56.3001 39.0304 57.924 39.0346C59.5471 39.0387 61.0801 38.4464 62.2756 37.3593L60.3317 35.4059L60.6379 35.2145C60.8867 35.0599 61.1182 34.8883 61.3289 34.7026L59.4391 32.8023L59.7595 32.6141C59.9409 32.5073 60.1118 32.3882 60.2665 32.2578L58.6801 30.6652L59.0135 30.4802C59.1075 30.4285 59.1957 30.371 59.2796 30.3075L57.9511 28.9719L56.615 30.3004C56.6974 30.3642 56.7865 30.4222 56.8799 30.4748L57.2119 30.6615L55.6182 32.2459C55.7723 32.3768 55.9418 32.4967 56.1239 32.6045L56.4437 32.7939L54.5431 34.6849C54.7536 34.8721 54.9847 35.0444 55.2319 35.2007L55.5375 35.3936L53.5845 37.3372Z"/>
<path fill-rule="evenodd" clip-rule="evenodd" d="M34.1686 39.4298C35.5522 39.1784 36.8272 38.5195 37.8449 37.5067L38.049 37.3033L36.1969 35.4423C36.4517 35.2614 36.6868 35.0636 36.9003 34.8523L37.1048 34.6489L35.3147 32.8502C35.5053 32.7163 35.6813 32.5694 35.8409 32.4111L36.0453 32.2076L34.5638 30.719C34.6689 30.6407 34.7682 30.5561 34.86 30.4652L35.0644 30.2621L32.9094 28.0962L30.7432 30.2504L30.9463 30.4541C31.0373 30.5459 31.1365 30.6315 31.2409 30.7103L29.7508 32.1904L29.9547 32.3945C30.1139 32.5537 30.2892 32.7015 30.4787 32.8364L28.6797 34.6261L28.8832 34.8305C29.0957 35.0429 29.3302 35.242 29.5841 35.4242L27.7229 37.2766L27.926 37.4807C28.9763 38.5363 30.3054 39.2086 31.746 39.4466L31.6261 39.4463L31.6223 40.9903C31.6212 41.4262 32.3394 41.52 32.9419 41.5216C33.5452 41.5232 34.2643 41.4335 34.2653 40.9973L34.2692 39.4308L34.1686 39.4298ZM30.4949 35.3307L30.1896 35.1381C29.942 34.9815 29.7114 34.8091 29.5012 34.6227L31.4017 32.7323L31.0815 32.5424C30.8994 32.4347 30.7303 32.3152 30.5754 32.1839L32.169 30.5992L31.8366 30.4124C31.7432 30.3599 31.6545 30.3023 31.5714 30.2384L32.907 28.9097L34.2356 30.245C34.1521 30.3085 34.0636 30.3656 33.9695 30.418L33.6373 30.603L35.222 32.1957C35.0668 32.3257 34.8964 32.4447 34.7145 32.5516L34.393 32.7393L36.2838 34.6401C36.0731 34.8254 35.8416 34.9969 35.5936 35.1519L35.2873 35.3433L37.2307 37.2968C36.0388 38.3834 34.5061 38.9756 32.8826 38.9713C31.2594 38.9671 29.7289 38.3665 28.5423 37.274L30.4949 35.3307ZM32.9437 40.9451C32.5712 40.9441 32.319 40.8975 32.1988 40.8602L32.2021 39.5127C32.4265 39.5349 32.6528 39.5469 32.8808 39.5474C33.1543 39.5482 33.4248 39.528 33.6929 39.4985L33.6895 40.8641C33.5691 40.9003 33.3167 40.9461 32.9437 40.9451Z"/>
<path d="M46.707 46.1459L46.7125 43.9777C46.9059 43.9562 47.0981 43.9296 47.2904 43.8994L47.2842 46.3411L47.2282 46.4035C46.9661 46.8673 45.8054 46.9166 45.271 46.9153C44.6665 46.9137 43.2606 46.8434 43.2621 46.224L43.2689 43.8503C43.4594 43.8862 43.6515 43.9173 43.8444 43.9433L43.8389 46.1386C43.9982 46.2196 44.499 46.3384 45.272 46.3403C46.0447 46.3423 46.5472 46.2261 46.707 46.1459Z"/>
</mask>
<path fill-rule="evenodd" clip-rule="evenodd" d="M52.1595 35.6517L51.955 35.8548C51.5567 36.2507 51.1085 36.6178 50.6204 36.9483L53.7336 40.077L53.5296 40.2804C51.3523 42.447 48.4616 43.6347 45.3911 43.6269C42.3202 43.6191 39.4359 42.4159 37.2701 40.2391L37.067 40.0346L40.1958 36.9218C39.7069 36.588 39.2602 36.219 38.8659 35.8211L38.6628 35.6174L41.6879 32.6073C41.3062 32.3536 40.9587 32.0705 40.6514 31.7617L40.4479 31.558L42.9541 29.0641C42.7179 28.9051 42.5003 28.7253 42.3031 28.5275L42.1001 28.3235L45.4372 25.0028L48.7582 28.3404L48.5541 28.5434C48.3575 28.7398 48.1389 28.9185 47.9012 29.0766L50.3951 31.5832L50.1902 31.7859C49.8801 32.0936 49.5312 32.3749 49.1494 32.6258L52.1595 35.6517ZM45.3922 43.0508C48.2135 43.058 50.8736 42.0029 52.9158 40.0729L49.7081 36.8465L50.0139 36.6555C50.4981 36.3533 50.9438 36.0137 51.3425 35.6449L48.2237 32.5103L48.5449 32.3225C48.922 32.1018 49.2669 31.8515 49.5749 31.5745L46.9669 28.9536L47.2999 28.7686C47.5301 28.6407 47.7427 28.4938 47.9365 28.3296L45.4359 25.8163L42.9238 28.3169C43.1167 28.4824 43.329 28.6304 43.5582 28.7591L43.8902 28.9454L41.2689 31.5534C41.5751 31.8316 41.9195 32.084 42.2955 32.3074L42.6145 32.4968L39.4811 35.6148C39.8759 35.9844 40.3199 36.3259 40.8041 36.6321L41.1085 36.825L37.8837 40.0339C39.9161 41.9742 42.5708 43.0436 45.3922 43.0508Z" fill="#BFE06F"/>
<path fill-rule="evenodd" clip-rule="evenodd" d="M61.2392 35.5056L63.0914 37.3665L62.8862 37.568C61.8307 38.6181 60.4987 39.2844 59.0562 39.5146L59.1761 39.5149L59.1722 41.0582C59.171 41.4952 58.4524 41.5849 57.8503 41.5834C57.2475 41.5818 56.5289 41.4881 56.53 41.0522L56.5344 39.4857L56.6354 39.486C55.2539 39.2274 53.9818 38.562 52.9685 37.5439L52.7659 37.3394L54.6271 35.488C54.3745 35.3062 54.1399 35.1071 53.9267 34.8944L53.7232 34.6903L55.5222 32.9004C55.332 32.7651 55.1567 32.6173 54.9987 32.4581L54.7952 32.2541L56.2837 30.7731C56.1782 30.6946 56.0798 30.6091 55.9888 30.5177L55.7854 30.314L57.952 28.1592L60.106 30.325L59.9023 30.5276C59.8109 30.619 59.7112 30.704 59.6061 30.7819L61.0887 32.2709L60.8834 32.4743C60.7234 32.6323 60.5474 32.7792 60.3576 32.9131L62.1467 34.7121L61.9422 34.9152C61.7287 35.1276 61.4932 35.3251 61.2392 35.5056ZM57.8522 41.008C58.2248 41.009 58.4772 40.9636 58.5975 40.927L58.6017 39.5794C58.3773 39.6005 58.1509 39.6113 57.9222 39.6107C57.6486 39.61 57.3779 39.5885 57.1111 39.5576L57.1077 40.9232C57.2278 40.9605 57.4796 41.0071 57.8522 41.008ZM53.5845 37.3372C54.7709 38.4296 56.3001 39.0304 57.924 39.0346C59.5471 39.0387 61.0801 38.4464 62.2756 37.3593L60.3317 35.4059L60.6379 35.2145C60.8867 35.0599 61.1182 34.8883 61.3289 34.7026L59.4391 32.8023L59.7595 32.6141C59.9409 32.5073 60.1118 32.3882 60.2665 32.2578L58.6801 30.6652L59.0135 30.4802C59.1075 30.4285 59.1957 30.371 59.2796 30.3075L57.9511 28.9719L56.615 30.3004C56.6974 30.3642 56.7865 30.4222 56.8799 30.4748L57.2119 30.6615L55.6182 32.2459C55.7723 32.3768 55.9418 32.4967 56.1239 32.6045L56.4437 32.7939L54.5431 34.6849C54.7536 34.8721 54.9847 35.0444 55.2319 35.2007L55.5375 35.3936L53.5845 37.3372Z" fill="#BFE06F"/>
<path fill-rule="evenodd" clip-rule="evenodd" d="M34.1686 39.4298C35.5522 39.1784 36.8272 38.5195 37.8449 37.5067L38.049 37.3033L36.1969 35.4423C36.4517 35.2614 36.6868 35.0636 36.9003 34.8523L37.1048 34.6489L35.3147 32.8502C35.5053 32.7163 35.6813 32.5694 35.8409 32.4111L36.0453 32.2076L34.5638 30.719C34.6689 30.6407 34.7682 30.5561 34.86 30.4652L35.0644 30.2621L32.9094 28.0962L30.7432 30.2504L30.9463 30.4541C31.0373 30.5459 31.1365 30.6315 31.2409 30.7103L29.7508 32.1904L29.9547 32.3945C30.1139 32.5537 30.2892 32.7015 30.4787 32.8364L28.6797 34.6261L28.8832 34.8305C29.0957 35.0429 29.3302 35.242 29.5841 35.4242L27.7229 37.2766L27.926 37.4807C28.9763 38.5363 30.3054 39.2086 31.746 39.4466L31.6261 39.4463L31.6223 40.9903C31.6212 41.4262 32.3394 41.52 32.9419 41.5216C33.5452 41.5232 34.2643 41.4335 34.2653 40.9973L34.2692 39.4308L34.1686 39.4298ZM30.4949 35.3307L30.1896 35.1381C29.942 34.9815 29.7114 34.8091 29.5012 34.6227L31.4017 32.7323L31.0815 32.5424C30.8994 32.4347 30.7303 32.3152 30.5754 32.1839L32.169 30.5992L31.8366 30.4124C31.7432 30.3599 31.6545 30.3023 31.5714 30.2384L32.907 28.9097L34.2356 30.245C34.1521 30.3085 34.0636 30.3656 33.9695 30.418L33.6373 30.603L35.222 32.1957C35.0668 32.3257 34.8964 32.4447 34.7145 32.5516L34.393 32.7393L36.2838 34.6401C36.0731 34.8254 35.8416 34.9969 35.5936 35.1519L35.2873 35.3433L37.2307 37.2968C36.0388 38.3834 34.5061 38.9756 32.8826 38.9713C31.2594 38.9671 29.7289 38.3665 28.5423 37.274L30.4949 35.3307ZM32.9437 40.9451C32.5712 40.9441 32.319 40.8975 32.1988 40.8602L32.2021 39.5127C32.4265 39.5349 32.6528 39.5469 32.8808 39.5474C33.1543 39.5482 33.4248 39.528 33.6929 39.4985L33.6895 40.8641C33.5691 40.9003 33.3167 40.9461 32.9437 40.9451Z" fill="#BFE06F"/>
<path d="M46.707 46.1459L46.7125 43.9777C46.9059 43.9562 47.0981 43.9296 47.2904 43.8994L47.2842 46.3411L47.2282 46.4035C46.9661 46.8673 45.8054 46.9166 45.271 46.9153C44.6665 46.9137 43.2606 46.8434 43.2621 46.224L43.2689 43.8503C43.4594 43.8862 43.6515 43.9173 43.8444 43.9433L43.8389 46.1386C43.9982 46.2196 44.499 46.3384 45.272 46.3403C46.0447 46.3423 46.5472 46.2261 46.707 46.1459Z" fill="#BFE06F"/>
<path fill-rule="evenodd" clip-rule="evenodd" d="M52.1595 35.6517L51.955 35.8548C51.5567 36.2507 51.1085 36.6178 50.6204 36.9483L53.7336 40.077L53.5296 40.2804C51.3523 42.447 48.4616 43.6347 45.3911 43.6269C42.3202 43.6191 39.4359 42.4159 37.2701 40.2391L37.067 40.0346L40.1958 36.9218C39.7069 36.588 39.2602 36.219 38.8659 35.8211L38.6628 35.6174L41.6879 32.6073C41.3062 32.3536 40.9587 32.0705 40.6514 31.7617L40.4479 31.558L42.9541 29.0641C42.7179 28.9051 42.5003 28.7253 42.3031 28.5275L42.1001 28.3235L45.4372 25.0028L48.7582 28.3404L48.5541 28.5434C48.3575 28.7398 48.1389 28.9185 47.9012 29.0766L50.3951 31.5832L50.1902 31.7859C49.8801 32.0936 49.5312 32.3749 49.1494 32.6258L52.1595 35.6517ZM45.3922 43.0508C48.2135 43.058 50.8736 42.0029 52.9158 40.0729L49.7081 36.8465L50.0139 36.6555C50.4981 36.3533 50.9438 36.0137 51.3425 35.6449L48.2237 32.5103L48.5449 32.3225C48.922 32.1018 49.2669 31.8515 49.5749 31.5745L46.9669 28.9536L47.2999 28.7686C47.5301 28.6407 47.7427 28.4938 47.9365 28.3296L45.4359 25.8163L42.9238 28.3169C43.1167 28.4824 43.329 28.6304 43.5582 28.7591L43.8902 28.9454L41.2689 31.5534C41.5751 31.8316 41.9195 32.084 42.2955 32.3074L42.6145 32.4968L39.4811 35.6148C39.8759 35.9844 40.3199 36.3259 40.8041 36.6321L41.1085 36.825L37.8837 40.0339C39.9161 41.9742 42.5708 43.0436 45.3922 43.0508Z" stroke="#BFE06F" stroke-width="0.6" mask="url(#path-3-outside-1_4002_97)"/>
<path fill-rule="evenodd" clip-rule="evenodd" d="M61.2392 35.5056L63.0914 37.3665L62.8862 37.568C61.8307 38.6181 60.4987 39.2844 59.0562 39.5146L59.1761 39.5149L59.1722 41.0582C59.171 41.4952 58.4524 41.5849 57.8503 41.5834C57.2475 41.5818 56.5289 41.4881 56.53 41.0522L56.5344 39.4857L56.6354 39.486C55.2539 39.2274 53.9818 38.562 52.9685 37.5439L52.7659 37.3394L54.6271 35.488C54.3745 35.3062 54.1399 35.1071 53.9267 34.8944L53.7232 34.6903L55.5222 32.9004C55.332 32.7651 55.1567 32.6173 54.9987 32.4581L54.7952 32.2541L56.2837 30.7731C56.1782 30.6946 56.0798 30.6091 55.9888 30.5177L55.7854 30.314L57.952 28.1592L60.106 30.325L59.9023 30.5276C59.8109 30.619 59.7112 30.704 59.6061 30.7819L61.0887 32.2709L60.8834 32.4743C60.7234 32.6323 60.5474 32.7792 60.3576 32.9131L62.1467 34.7121L61.9422 34.9152C61.7287 35.1276 61.4932 35.3251 61.2392 35.5056ZM57.8522 41.008C58.2248 41.009 58.4772 40.9636 58.5975 40.927L58.6017 39.5794C58.3773 39.6005 58.1509 39.6113 57.9222 39.6107C57.6486 39.61 57.3779 39.5885 57.1111 39.5576L57.1077 40.9232C57.2278 40.9605 57.4796 41.0071 57.8522 41.008ZM53.5845 37.3372C54.7709 38.4296 56.3001 39.0304 57.924 39.0346C59.5471 39.0387 61.0801 38.4464 62.2756 37.3593L60.3317 35.4059L60.6379 35.2145C60.8867 35.0599 61.1182 34.8883 61.3289 34.7026L59.4391 32.8023L59.7595 32.6141C59.9409 32.5073 60.1118 32.3882 60.2665 32.2578L58.6801 30.6652L59.0135 30.4802C59.1075 30.4285 59.1957 30.371 59.2796 30.3075L57.9511 28.9719L56.615 30.3004C56.6974 30.3642 56.7865 30.4222 56.8799 30.4748L57.2119 30.6615L55.6182 32.2459C55.7723 32.3768 55.9418 32.4967 56.1239 32.6045L56.4437 32.7939L54.5431 34.6849C54.7536 34.8721 54.9847 35.0444 55.2319 35.2007L55.5375 35.3936L53.5845 37.3372Z" stroke="#BFE06F" stroke-width="0.6" mask="url(#path-3-outside-1_4002_97)"/>
<path fill-rule="evenodd" clip-rule="evenodd" d="M34.1686 39.4298C35.5522 39.1784 36.8272 38.5195 37.8449 37.5067L38.049 37.3033L36.1969 35.4423C36.4517 35.2614 36.6868 35.0636 36.9003 34.8523L37.1048 34.6489L35.3147 32.8502C35.5053 32.7163 35.6813 32.5694 35.8409 32.4111L36.0453 32.2076L34.5638 30.719C34.6689 30.6407 34.7682 30.5561 34.86 30.4652L35.0644 30.2621L32.9094 28.0962L30.7432 30.2504L30.9463 30.4541C31.0373 30.5459 31.1365 30.6315 31.2409 30.7103L29.7508 32.1904L29.9547 32.3945C30.1139 32.5537 30.2892 32.7015 30.4787 32.8364L28.6797 34.6261L28.8832 34.8305C29.0957 35.0429 29.3302 35.242 29.5841 35.4242L27.7229 37.2766L27.926 37.4807C28.9763 38.5363 30.3054 39.2086 31.746 39.4466L31.6261 39.4463L31.6223 40.9903C31.6212 41.4262 32.3394 41.52 32.9419 41.5216C33.5452 41.5232 34.2643 41.4335 34.2653 40.9973L34.2692 39.4308L34.1686 39.4298ZM30.4949 35.3307L30.1896 35.1381C29.942 34.9815 29.7114 34.8091 29.5012 34.6227L31.4017 32.7323L31.0815 32.5424C30.8994 32.4347 30.7303 32.3152 30.5754 32.1839L32.169 30.5992L31.8366 30.4124C31.7432 30.3599 31.6545 30.3023 31.5714 30.2384L32.907 28.9097L34.2356 30.245C34.1521 30.3085 34.0636 30.3656 33.9695 30.418L33.6373 30.603L35.222 32.1957C35.0668 32.3257 34.8964 32.4447 34.7145 32.5516L34.393 32.7393L36.2838 34.6401C36.0731 34.8254 35.8416 34.9969 35.5936 35.1519L35.2873 35.3433L37.2307 37.2968C36.0388 38.3834 34.5061 38.9756 32.8826 38.9713C31.2594 38.9671 29.7289 38.3665 28.5423 37.274L30.4949 35.3307ZM32.9437 40.9451C32.5712 40.9441 32.319 40.8975 32.1988 40.8602L32.2021 39.5127C32.4265 39.5349 32.6528 39.5469 32.8808 39.5474C33.1543 39.5482 33.4248 39.528 33.6929 39.4985L33.6895 40.8641C33.5691 40.9003 33.3167 40.9461 32.9437 40.9451Z" stroke="#BFE06F" stroke-width="0.6" mask="url(#path-3-outside-1_4002_97)"/>
<path d="M46.707 46.1459L46.7125 43.9777C46.9059 43.9562 47.0981 43.9296 47.2904 43.8994L47.2842 46.3411L47.2282 46.4035C46.9661 46.8673 45.8054 46.9166 45.271 46.9153C44.6665 46.9137 43.2606 46.8434 43.2621 46.224L43.2689 43.8503C43.4594 43.8862 43.6515 43.9173 43.8444 43.9433L43.8389 46.1386C43.9982 46.2196 44.499 46.3384 45.272 46.3403C46.0447 46.3423 46.5472 46.2261 46.707 46.1459Z" stroke="#BFE06F" stroke-width="0.6" mask="url(#path-3-outside-1_4002_97)"/>
</g>
<path d="M109.752 9.40012H114.288L108.24 29.0001H103.676L99.784 15.6441L95.892 29.0001H91.328L85.28 9.40012H89.816L93.708 24.2121L97.936 9.40012H101.632L105.86 24.2121L109.752 9.40012ZM115.691 23.0361C115.262 21.8228 115.047 20.5441 115.047 19.2001C115.047 17.8561 115.262 16.5775 115.691 15.3641C116.139 14.1508 116.783 13.0681 117.623 12.1161C118.482 11.1641 119.583 10.4081 120.927 9.84812C122.271 9.28812 123.783 9.00812 125.463 9.00812C127.143 9.00812 128.655 9.28812 129.999 9.84812C131.343 10.4081 132.435 11.1641 133.275 12.1161C134.134 13.0681 134.778 14.1508 135.207 15.3641C135.655 16.5775 135.879 17.8561 135.879 19.2001C135.879 20.5441 135.655 21.8228 135.207 23.0361C134.778 24.2495 134.134 25.3321 133.275 26.2841C132.435 27.2361 131.343 27.9921 129.999 28.5521C128.655 29.1121 127.143 29.3921 125.463 29.3921C123.783 29.3921 122.271 29.1121 120.927 28.5521C119.583 27.9921 118.482 27.2361 117.623 26.2841C116.783 25.3321 116.139 24.2495 115.691 23.0361ZM129.971 23.7081C131.035 22.5135 131.567 21.0108 131.567 19.2001C131.567 17.3895 131.035 15.8868 129.971 14.6921C128.907 13.4975 127.404 12.9001 125.463 12.9001C123.503 12.9001 121.991 13.4975 120.927 14.6921C119.863 15.8868 119.331 17.3895 119.331 19.2001C119.331 21.0108 119.863 22.5135 120.927 23.7081C121.991 24.9028 123.503 25.5001 125.463 25.5001C127.404 25.5001 128.907 24.9028 129.971 23.7081ZM138.55 23.0361C138.121 21.8228 137.906 20.5441 137.906 19.2001C137.906 17.8561 138.121 16.5775 138.55 15.3641C138.998 14.1508 139.642 13.0681 140.482 12.1161C141.341 11.1641 142.442 10.4081 143.786 9.84812C145.13 9.28812 146.642 9.00812 148.322 9.00812C150.002 9.00812 151.514 9.28812 152.858 9.84812C154.202 10.4081 155.294 11.1641 156.134 12.1161C156.993 13.0681 157.637 14.1508 158.066 15.3641C158.514 16.5775 158.738 17.8561 158.738 19.2001C158.738 20.5441 158.514 21.8228 158.066 23.0361C157.637 24.2495 156.993 25.3321 156.134 26.2841C155.294 27.2361 154.202 27.9921 152.858 28.5521C151.514 29.1121 150.002 29.3921 148.322 29.3921C146.642 29.3921 145.13 29.1121 143.786 28.5521C142.442 27.9921 141.341 27.2361 140.482 26.2841C139.642 25.3321 138.998 24.2495 138.55 23.0361ZM152.83 23.7081C153.894 22.5135 154.426 21.0108 154.426 19.2001C154.426 17.3895 153.894 15.8868 152.83 14.6921C151.766 13.4975 150.264 12.9001 148.322 12.9001C146.362 12.9001 144.85 13.4975 143.786 14.6921C142.722 15.8868 142.19 17.3895 142.19 19.2001C142.19 21.0108 142.722 22.5135 143.786 23.7081C144.85 24.9028 146.362 25.5001 148.322 25.5001C150.264 25.5001 151.766 24.9028 152.83 23.7081ZM161.858 9.40012H169.194C172.554 9.40012 175.102 10.2961 176.838 12.0881C178.592 13.8615 179.47 16.2321 179.47 19.2001C179.47 22.1681 178.592 24.5481 176.838 26.3401C175.102 28.1135 172.554 29.0001 169.194 29.0001H161.858V9.40012ZM173.646 23.7641C174.672 22.7375 175.186 21.2161 175.186 19.2001C175.186 17.1841 174.672 15.6628 173.646 14.6361C172.638 13.6095 171.154 13.0961 169.194 13.0961H166.058V25.3041H169.194C171.154 25.3041 172.638 24.7908 173.646 23.7641ZM182.639 9.40012H186.839V25.2201H196.443V29.0001H182.639V9.40012ZM201.233 29.0001H196.893L204.901 9.40012H209.437L217.417 29.0001H213.077L211.649 25.3321H202.689L201.233 29.0001ZM206.721 14.8321L204.005 21.8601H210.333L207.589 14.8321C207.402 14.3095 207.262 13.7961 207.169 13.2921C207.057 13.8708 206.907 14.3841 206.721 14.8321ZM223.808 29.0001H219.608V9.40012H223.556L232.684 22.1961C232.628 21.3935 232.6 20.4975 232.6 19.5081V9.40012H236.8V29.0001H232.852L223.724 16.2041C223.78 17.0068 223.808 17.9028 223.808 18.8921V29.0001ZM240.991 9.40012H248.327C251.687 9.40012 254.235 10.2961 255.971 12.0881C257.725 13.8615 258.603 16.2321 258.603 19.2001C258.603 22.1681 257.725 24.5481 255.971 26.3401C254.235 28.1135 251.687 29.0001 248.327 29.0001H240.991V9.40012ZM252.779 23.7641C253.805 22.7375 254.319 21.2161 254.319 19.2001C254.319 17.1841 253.805 15.6628 252.779 14.6361C251.771 13.6095 250.287 13.0961 248.327 13.0961H245.191V25.3041H248.327C250.287 25.3041 251.771 24.7908 252.779 23.7641ZM86.036 47.2001C86.036 45.4828 86.3347 43.9615 86.932 42.6361C87.5293 41.2921 88.332 40.2188 89.34 39.4161C90.3667 38.6135 91.5053 38.0161 92.756 37.6241C94.0067 37.2135 95.3227 37.0081 96.704 37.0081C98.832 37.0081 100.839 37.4281 102.724 38.2681V42.2721C101.193 41.2641 99.3733 40.7601 97.264 40.7601C95.3227 40.7601 93.68 41.3015 92.336 42.3841C90.992 43.4481 90.32 45.0535 90.32 47.2001C90.32 48.4321 90.5253 49.4961 90.936 50.3921C91.3653 51.2881 91.9253 51.9695 92.616 52.4361C93.3067 52.8841 94.016 53.2108 94.744 53.4161C95.472 53.6215 96.2373 53.7241 97.04 53.7241C97.8427 53.7241 98.5613 53.6028 99.196 53.3601V46.3601H103.2V56.0761C101.147 56.9535 99.0187 57.3921 96.816 57.3921C95.696 57.3921 94.6133 57.2708 93.568 57.0281C92.5413 56.7855 91.5613 56.4028 90.628 55.8801C89.7133 55.3388 88.92 54.6855 88.248 53.9201C87.576 53.1361 87.0347 52.1748 86.624 51.0361C86.232 49.8788 86.036 48.6001 86.036 47.2001ZM106.312 51.0361C105.883 49.8228 105.668 48.5441 105.668 47.2001C105.668 45.8561 105.883 44.5775 106.312 43.3641C106.76 42.1508 107.404 41.0681 108.244 40.1161C109.103 39.1641 110.204 38.4081 111.548 37.8481C112.892 37.2881 114.404 37.0081 116.084 37.0081C117.764 37.0081 119.276 37.2881 120.62 37.8481C121.964 38.4081 123.056 39.1641 123.896 40.1161C124.755 41.0681 125.399 42.1508 125.828 43.3641C126.276 44.5775 126.5 45.8561 126.5 47.2001C126.5 48.5441 126.276 49.8228 125.828 51.0361C125.399 52.2495 124.755 53.3321 123.896 54.2841C123.056 55.2361 121.964 55.9921 120.62 56.5521C119.276 57.1121 117.764 57.3921 116.084 57.3921C114.404 57.3921 112.892 57.1121 111.548 56.5521C110.204 55.9921 109.103 55.2361 108.244 54.2841C107.404 53.3321 106.76 52.2495 106.312 51.0361ZM120.592 51.7081C121.656 50.5135 122.188 49.0108 122.188 47.2001C122.188 45.3895 121.656 43.8868 120.592 42.6921C119.528 41.4975 118.025 40.9001 116.084 40.9001C114.124 40.9001 112.612 41.4975 111.548 42.6921C110.484 43.8868 109.952 45.3895 109.952 47.2001C109.952 49.0108 110.484 50.5135 111.548 51.7081C112.612 52.9028 114.124 53.5001 116.084 53.5001C118.025 53.5001 119.528 52.9028 120.592 51.7081ZM129.172 51.0361C128.742 49.8228 128.528 48.5441 128.528 47.2001C128.528 45.8561 128.742 44.5775 129.172 43.3641C129.62 42.1508 130.264 41.0681 131.104 40.1161C131.962 39.1641 133.064 38.4081 134.408 37.8481C135.752 37.2881 137.264 37.0081 138.944 37.0081C140.624 37.0081 142.136 37.2881 143.48 37.8481C144.824 38.4081 145.916 39.1641 146.756 40.1161C147.614 41.0681 148.258 42.1508 148.688 43.3641C149.136 44.5775 149.36 45.8561 149.36 47.2001C149.36 48.5441 149.136 49.8228 148.688 51.0361C148.258 52.2495 147.614 53.3321 146.756 54.2841C145.916 55.2361 144.824 55.9921 143.48 56.5521C142.136 57.1121 140.624 57.3921 138.944 57.3921C137.264 57.3921 135.752 57.1121 134.408 56.5521C133.064 55.9921 131.962 55.2361 131.104 54.2841C130.264 53.3321 129.62 52.2495 129.172 51.0361ZM143.452 51.7081C144.516 50.5135 145.048 49.0108 145.048 47.2001C145.048 45.3895 144.516 43.8868 143.452 42.6921C142.388 41.4975 140.885 40.9001 138.944 40.9001C136.984 40.9001 135.472 41.4975 134.408 42.6921C133.344 43.8868 132.812 45.3895 132.812 47.2001C132.812 49.0108 133.344 50.5135 134.408 51.7081C135.472 52.9028 136.984 53.5001 138.944 53.5001C140.885 53.5001 142.388 52.9028 143.452 51.7081ZM152.479 37.4001H159.815C163.175 37.4001 165.723 38.2961 167.459 40.0881C169.214 41.8615 170.091 44.2321 170.091 47.2001C170.091 50.1681 169.214 52.5481 167.459 54.3401C165.723 56.1135 163.175 57.0001 159.815 57.0001H152.479V37.4001ZM164.267 51.7641C165.294 50.7375 165.807 49.2161 165.807 47.2001C165.807 45.1841 165.294 43.6628 164.267 42.6361C163.259 41.6095 161.775 41.0961 159.815 41.0961H156.679V53.3041H159.815C161.775 53.3041 163.259 52.7908 164.267 51.7641ZM172.392 42.5801C172.392 40.7695 173.073 39.3881 174.436 38.4361C175.799 37.4841 177.507 37.0081 179.56 37.0081C182.024 37.0081 184.143 37.5121 185.916 38.5201V42.4401C184.255 41.2455 182.239 40.6668 179.868 40.7041C177.74 40.7415 176.676 41.3481 176.676 42.5241C176.676 43.0468 176.937 43.5041 177.46 43.8961C178.001 44.2881 178.664 44.6055 179.448 44.8481C180.251 45.0721 181.109 45.3708 182.024 45.7441C182.957 46.0988 183.816 46.4908 184.6 46.9201C185.403 47.3308 186.065 47.9468 186.588 48.7681C187.129 49.5895 187.4 50.5415 187.4 51.6241C187.4 52.6881 187.195 53.6028 186.784 54.3681C186.392 55.1335 185.832 55.7308 185.104 56.1601C184.376 56.5895 183.573 56.8975 182.696 57.0841C181.819 57.2895 180.839 57.3921 179.756 57.3921C177.031 57.3921 174.613 56.8041 172.504 55.6281V51.6241C174.595 53.0055 176.909 53.6961 179.448 53.6961C181.893 53.6961 183.116 53.0708 183.116 51.8201C183.116 51.2601 182.845 50.7748 182.304 50.3641C181.781 49.9348 181.119 49.5988 180.316 49.3561C179.532 49.0948 178.673 48.7868 177.74 48.4321C176.825 48.0588 175.967 47.6668 175.164 47.2561C174.38 46.8268 173.717 46.2108 173.176 45.4081C172.653 44.6055 172.392 43.6628 172.392 42.5801Z" fill="white"/>
<defs>
<clipPath id="clip0_4002_97">
<rect width="70" height="70" fill="white"/>
</clipPath>
</defs>
</svg>
