<svg width="250" height="250" viewBox="0 0 250 250" fill="none" xmlns="http://www.w3.org/2000/svg">
<g clip-path="url(#clip0_4002_68)">
<path d="M125 250C194.036 250 250 194.036 250 125C250 55.9644 194.036 0 125 0C55.9644 0 0 55.9644 0 125C0 194.036 55.9644 250 125 250Z" fill="#578C3E"/>
<path d="M125 250C180.228 250 225 205.228 225 150C225 94.7715 180.228 50 125 50C69.7715 50 25 94.7715 25 150C25 205.228 69.7715 250 125 250Z" fill="#BFE06F"/>
<path d="M125 250C166.421 250 200 216.421 200 175C200 133.579 166.421 100 125 100C83.5786 100 50 133.579 50 175C50 216.421 83.5786 250 125 250Z" fill="#578C3E"/>
<path d="M125 250C152.614 250 175 227.614 175 200C175 172.386 152.614 150 125 150C97.3858 150 75 172.386 75 200C75 227.614 97.3858 250 125 250Z" fill="#BFE06F"/>
<path d="M125 250C138.807 250 150 238.807 150 225C150 211.193 138.807 200 125 200C111.193 200 100 211.193 100 225C100 238.807 111.193 250 125 250Z" fill="#578C3E"/>
</g>
<defs>
<clipPath id="clip0_4002_68">
<rect width="250" height="250" rx="125" fill="white"/>
</clipPath>
</defs>
</svg>
